<?xml version="1.0" encoding="utf-8" standalone="no"?>
<!DOCTYPE svg PUBLIC "-//W3C//DTD SVG 1.1//EN"
  "http://www.w3.org/Graphics/SVG/1.1/DTD/svg11.dtd">
<svg xmlns:xlink="http://www.w3.org/1999/xlink" width="669.6pt" height="221.76pt" viewBox="0 0 669.6 221.76" xmlns="http://www.w3.org/2000/svg" version="1.1">
 <metadata>
  <rdf:RDF xmlns:dc="http://purl.org/dc/elements/1.1/" xmlns:cc="http://creativecommons.org/ns#" xmlns:rdf="http://www.w3.org/1999/02/22-rdf-syntax-ns#">
   <cc:Work>
    <dc:type rdf:resource="http://purl.org/dc/dcmitype/StillImage"/>
    <dc:date>2026-03-29T18:14:30.720320</dc:date>
    <dc:format>image/svg+xml</dc:format>
    <dc:creator>
     <cc:Agent>
      <dc:title>Matplotlib v3.10.8, https://matplotlib.org/</dc:title>
     </cc:Agent>
    </dc:creator>
   </cc:Work>
  </rdf:RDF>
 </metadata>
 <defs>
  <style type="text/css">*{stroke-linejoin: round; stroke-linecap: butt}</style>
 </defs>
 <g id="figure_1">
  <g id="patch_1">
   <path d="M 0 221.76 
L 669.6 221.76 
L 669.6 0 
L 0 0 
L 0 221.76 
z
" style="fill: none"/>
  </g>
  <g id="axes_1">
   <g id="patch_2">
    <path d="M 385.527273 221.76 
L 461.618182 221.76 
L 461.618182 -0 
L 385.527273 -0 
z
" clip-path="url(#p22afc20020)" style="fill: #f43f5e; opacity: 0.1"/>
   </g>
   <g id="line2d_1">
    <path d="M 30.436364 156.32474 
L 31.961996 154.04988 
L 33.487628 155.54656 
L 35.01326 153.659956 
L 36.538893 155.394794 
L 38.064525 152.013365 
L 39.590157 151.77372 
L 41.115789 149.760884 
L 42.641422 147.321148 
L 44.167054 147.683859 
L 45.692686 146.060566 
L 47.218319 142.932346 
L 48.743951 145.678438 
L 51.795215 144.743389 
L 53.320848 140.008518 
L 54.84648 141.612272 
L 56.372112 140.879234 
L 57.897744 139.761484 
L 59.423377 137.828541 
L 60.949009 140.646162 
L 62.474641 137.567196 
L 64.000273 136.076675 
L 65.525906 135.639933 
L 67.051538 133.771156 
L 68.57717 136.466921 
L 70.102802 131.547306 
L 71.628435 133.459122 
L 73.154067 133.426239 
L 74.679699 128.575136 
L 76.205332 127.918409 
L 77.730964 126.361391 
L 79.256596 129.86727 
L 80.782228 126.418667 
L 82.307861 125.37599 
L 83.833493 123.873318 
L 85.359125 123.997636 
L 86.884757 124.685167 
L 88.41039 122.734104 
L 89.936022 123.06332 
L 91.461654 123.149969 
L 92.987286 120.511999 
L 96.038551 120.759491 
L 97.564183 120.133948 
L 99.089815 119.158592 
L 100.615448 118.448421 
L 103.666712 115.422406 
L 105.192344 116.99204 
L 106.717977 115.276993 
L 109.769241 114.241979 
L 111.294874 113.431539 
L 112.820506 112.149314 
L 114.346138 109.62915 
L 115.87177 114.360923 
L 117.397403 108.962143 
L 118.923035 111.391364 
L 120.448667 109.581406 
L 121.974299 107.27383 
L 125.025564 110.046482 
L 126.551196 108.287285 
L 128.076828 110.284922 
L 129.602461 108.901987 
L 131.128093 108.055472 
L 132.653725 106.544146 
L 134.179357 107.788865 
L 135.70499 108.545828 
L 137.230622 104.974774 
L 138.756254 106.943244 
L 140.281887 104.637286 
L 141.807519 107.526773 
L 143.333151 106.025389 
L 144.858783 102.134517 
L 146.384416 102.950001 
L 147.910048 103.614831 
L 149.43568 103.367072 
L 150.961312 105.48935 
L 154.012577 103.746742 
L 155.538209 101.185427 
L 157.063841 103.57472 
L 158.589474 103.906751 
L 160.115106 107.385434 
L 161.640738 105.429067 
L 163.16637 104.41505 
L 164.692003 105.232874 
L 166.217635 104.978134 
L 167.743267 104.470776 
L 169.2689 104.338951 
L 170.794532 105.319226 
L 172.320164 105.831777 
L 173.845796 102.68837 
L 175.371429 102.804214 
L 176.897061 103.618133 
L 178.422693 103.980793 
L 179.948325 104.54444 
L 181.473958 105.943128 
L 182.99959 103.674998 
L 184.525222 105.635294 
L 186.050854 106.751104 
L 187.576487 105.051017 
L 189.102119 106.832171 
L 190.627751 107.845457 
L 192.153383 109.049187 
L 193.679016 109.214499 
L 195.204648 108.69051 
L 196.73028 109.658189 
L 198.255913 109.115071 
L 199.781545 111.601072 
L 201.307177 106.266523 
L 202.832809 107.944017 
L 205.884074 112.53362 
L 207.409706 109.558975 
L 208.935338 112.571203 
L 210.460971 111.23167 
L 211.986603 114.228637 
L 213.512235 114.08531 
L 215.037867 112.205038 
L 216.5635 114.600001 
L 219.614764 114.874084 
L 221.140396 116.923451 
L 222.666029 117.452838 
L 224.191661 119.147676 
L 225.717293 115.374416 
L 227.242925 119.725302 
L 228.768558 119.320853 
L 231.819822 123.284369 
L 233.345455 120.06563 
L 234.871087 119.236684 
L 236.396719 122.854359 
L 237.922351 121.874501 
L 239.447984 125.522833 
L 240.973616 124.990777 
L 242.499248 125.239688 
L 244.02488 127.925651 
L 245.550513 126.32608 
L 247.076145 126.611929 
L 248.601777 129.107276 
L 250.127409 129.089931 
L 251.653042 130.877872 
L 253.178674 130.927307 
L 254.704306 134.548519 
L 256.229938 132.241908 
L 257.755571 135.186898 
L 259.281203 133.142584 
L 260.806835 134.351597 
L 262.332468 135.774191 
L 263.8581 138.883884 
L 265.383732 139.611705 
L 266.909364 138.725115 
L 268.434997 139.04413 
L 269.960629 140.260962 
L 271.486261 140.928864 
L 273.011893 142.279007 
L 274.537526 142.034184 
L 276.063158 144.103665 
L 277.58879 141.440802 
L 279.114422 145.791227 
L 280.640055 144.752718 
L 282.165687 148.355832 
L 283.691319 149.786701 
L 285.216951 150.38935 
L 288.268216 150.140325 
L 289.793848 151.014812 
L 291.319481 152.791808 
L 292.845113 155.626185 
L 294.370745 153.732052 
L 295.896377 155.242249 
L 297.42201 158.423777 
L 298.947642 158.911105 
L 300.473274 157.884846 
L 301.998906 159.914572 
L 303.524539 161.643012 
L 305.050171 162.066548 
L 306.575803 164.635083 
L 308.101435 161.706371 
L 309.627068 166.614561 
L 311.1527 166.758339 
L 312.678332 166.384324 
L 314.203964 165.530521 
L 315.729597 169.228104 
L 317.255229 166.604921 
L 318.780861 171.673951 
L 321.832126 173.115414 
L 323.357758 172.880064 
L 324.88339 172.287898 
L 326.409023 176.904344 
L 327.934655 176.380107 
L 329.460287 177.454873 
L 330.985919 177.175287 
L 332.511552 180.381108 
L 334.037184 179.119901 
L 335.562816 181.65127 
L 337.088448 181.46672 
L 338.614081 180.709419 
L 340.139713 182.905145 
L 341.665345 182.8639 
L 343.190977 184.483954 
L 344.71661 186.312582 
L 346.242242 187.56149 
L 347.767874 184.690854 
L 349.293506 187.578055 
L 350.819139 187.357602 
L 352.344771 185.961472 
L 353.870403 190.035061 
L 355.396036 192.797385 
L 356.921668 191.753317 
L 358.4473 195.551614 
L 359.972932 191.724008 
L 361.498565 194.79831 
L 363.024197 193.266466 
L 364.549829 194.453428 
L 366.075461 193.078144 
L 367.601094 196.828563 
L 369.126726 197.75288 
L 370.652358 197.564824 
L 372.17799 199.290352 
L 373.703623 199.847372 
L 375.229255 200.910436 
L 376.754887 200.704432 
L 378.280519 202.296777 
L 379.806152 201.177352 
L 382.857416 202.81285 
L 384.383049 201.873453 
L 385.908681 205.88266 
L 387.434313 205.187597 
L 388.959945 202.393866 
L 390.485578 200.97822 
L 392.01121 205.648516 
L 393.536842 205.344129 
L 395.062474 205.454932 
L 396.588107 204.104214 
L 398.113739 207.500442 
L 399.639371 207.490792 
L 401.165003 205.527579 
L 402.690636 207.631013 
L 404.216268 207.539695 
L 405.7419 207.029617 
L 407.267532 207.740635 
L 408.793165 205.536921 
L 410.318797 208.966682 
L 411.844429 207.119798 
L 413.370062 207.246112 
L 414.895694 208.360055 
L 416.421326 207.302982 
L 417.946958 207.803188 
L 419.472591 208.845694 
L 420.998223 208.667352 
L 422.523855 210.64033 
L 424.049487 208.054738 
L 425.57512 208.833235 
L 427.100752 211.68 
L 428.626384 208.385791 
L 430.152016 209.966907 
L 431.677649 210.1537 
L 433.203281 208.638696 
L 434.728913 210.487893 
L 436.254545 210.450045 
L 437.780178 207.946764 
L 439.30581 208.168625 
L 440.831442 209.248345 
L 442.357075 207.943166 
L 443.882707 207.467065 
L 445.408339 209.450728 
L 446.933971 209.937835 
L 448.459604 206.942565 
L 449.985236 209.211071 
L 451.510868 208.449506 
L 453.0365 206.38187 
L 454.562133 206.578212 
L 456.087765 205.080918 
L 459.139029 205.93214 
L 460.664662 208.037623 
L 462.190294 204.119723 
L 463.715926 205.119685 
L 465.241558 204.380646 
L 466.767191 205.419112 
L 468.292823 203.269988 
L 469.818455 202.655989 
L 471.344087 204.181409 
L 472.86972 203.076992 
L 474.395352 203.133217 
L 475.920984 201.557014 
L 477.446617 201.891221 
L 478.972249 200.573519 
L 480.497881 199.448016 
L 482.023513 201.801515 
L 483.549146 196.352912 
L 485.074778 198.084813 
L 486.60041 199.212233 
L 489.651675 194.945184 
L 491.177307 198.125487 
L 492.702939 192.355396 
L 494.228571 196.80963 
L 495.754204 192.827319 
L 497.279836 191.129876 
L 498.805468 194.789485 
L 500.3311 192.163967 
L 501.856733 189.096542 
L 503.382365 186.780866 
L 504.907997 189.180531 
L 506.43363 187.772912 
L 507.959262 189.856705 
L 509.484894 187.615411 
L 511.010526 185.073533 
L 512.536159 185.843444 
L 514.061791 184.14184 
L 515.587423 183.394235 
L 517.113055 184.383522 
L 518.638688 182.689317 
L 520.16432 180.382555 
L 521.689952 181.19766 
L 523.215584 178.825428 
L 524.741217 176.778949 
L 526.266849 178.09281 
L 527.792481 176.443961 
L 529.318113 178.102804 
L 530.843746 174.947273 
L 532.369378 174.329261 
L 533.89501 174.587506 
L 535.420643 171.538262 
L 536.946275 170.851457 
L 538.471907 171.200153 
L 539.997539 169.105867 
L 541.523172 170.949652 
L 543.048804 168.192055 
L 544.574436 166.218621 
L 546.100068 167.752974 
L 547.625701 168.385323 
L 549.151333 162.651083 
L 550.676965 162.084629 
L 552.202597 160.670698 
L 553.72823 161.476133 
L 555.253862 161.906447 
L 556.779494 160.046501 
L 558.305126 159.776886 
L 559.830759 155.836275 
L 561.356391 156.904464 
L 562.882023 156.064365 
L 564.407656 155.641735 
L 565.933288 155.753616 
L 567.45892 151.49532 
L 568.984552 152.287632 
L 570.510185 149.43222 
L 572.035817 149.987678 
L 573.561449 151.135312 
L 575.087081 150.186524 
L 576.612714 147.019176 
L 578.138346 146.383577 
L 579.663978 147.248217 
L 581.18961 143.066876 
L 582.715243 144.70661 
L 584.240875 142.311251 
L 585.766507 140.78772 
L 587.292139 141.830026 
L 588.817772 139.681001 
L 590.343404 136.531324 
L 591.869036 136.072603 
L 593.394668 140.97631 
L 594.920301 135.673947 
L 596.445933 134.465442 
L 597.971565 136.751852 
L 599.497198 130.96743 
L 601.02283 133.718399 
L 602.548462 133.378798 
L 604.074094 132.696628 
L 605.599727 132.794606 
L 607.125359 128.098489 
L 608.650991 129.193612 
L 610.176623 128.520987 
L 611.702256 128.816483 
L 613.227888 128.450822 
L 614.75352 125.566087 
L 616.279152 124.843558 
L 617.804785 122.468789 
L 619.330417 120.974803 
L 620.856049 122.302624 
L 623.907314 120.962403 
L 625.432946 119.60289 
L 626.958578 119.1519 
L 628.484211 117.503777 
L 630.009843 118.531087 
L 631.535475 116.771302 
L 633.061107 117.597296 
L 634.58674 113.824549 
L 636.112372 112.740932 
L 637.638004 115.16306 
L 639.163636 112.822689 
L 639.163636 112.822689 
" clip-path="url(#p22afc20020)" style="fill: none; stroke: #cbd5e1; stroke-opacity: 0.6; stroke-width: 1.5; stroke-linecap: round"/>
   </g>
   <g id="line2d_2">
    <path d="M 30.436364 153.716486 
L 31.961996 153.709813 
L 33.487628 158.954564 
L 35.01326 159.711489 
L 38.064525 149.731486 
L 39.590157 153.696347 
L 41.115789 152.534341 
L 42.641422 154.10112 
L 44.167054 155.174768 
L 45.692686 155.731408 
L 47.218319 158.638573 
L 48.743951 148.263752 
L 50.269583 152.276483 
L 51.795215 157.288275 
L 53.320848 152.935182 
L 54.84648 152.206454 
L 56.372112 153.220364 
L 57.897744 156.456429 
L 59.423377 151.964449 
L 60.949009 149.083471 
L 62.474641 151.595265 
L 65.525906 146.413584 
L 67.051538 143.962108 
L 68.57717 149.511494 
L 70.102802 145.284181 
L 71.628435 154.151103 
L 73.154067 150.348578 
L 74.679699 148.175054 
L 76.205332 147.196943 
L 77.730964 144.853212 
L 79.256596 147.854177 
L 80.782228 151.272706 
L 82.307861 147.791324 
L 83.833493 148.753597 
L 85.359125 147.996357 
L 86.884757 149.402507 
L 88.41039 147.707077 
L 89.936022 149.530571 
L 91.461654 147.557339 
L 92.987286 146.954888 
L 94.512919 142.42918 
L 96.038551 148.022568 
L 97.564183 150.815072 
L 99.089815 145.360187 
L 100.615448 147.490102 
L 102.14108 142.561897 
L 103.666712 148.230742 
L 105.192344 146.000688 
L 106.717977 143.333658 
L 108.243609 144.379918 
L 109.769241 147.337009 
L 111.294874 142.116152 
L 112.820506 144.398398 
L 114.346138 142.390144 
L 115.87177 147.335355 
L 117.397403 144.794513 
L 118.923035 145.197886 
L 120.448667 144.145486 
L 121.974299 142.039184 
L 123.499932 148.831308 
L 125.025564 141.785584 
L 126.551196 142.853792 
L 128.076828 140.55221 
L 129.602461 144.398057 
L 131.128093 141.541959 
L 132.653725 142.887914 
L 134.179357 146.576933 
L 135.70499 145.752751 
L 138.756254 144.724181 
L 140.281887 138.855917 
L 141.807519 141.776022 
L 143.333151 144.092886 
L 144.858783 147.080891 
L 146.384416 144.764957 
L 147.910048 140.727046 
L 149.43568 143.828574 
L 150.961312 145.430554 
L 152.486945 141.133998 
L 154.012577 143.967958 
L 155.538209 141.390351 
L 157.063841 142.065263 
L 158.589474 148.875939 
L 160.115106 141.419989 
L 161.640738 142.326705 
L 163.16637 144.630414 
L 164.692003 141.475147 
L 166.217635 137.138946 
L 167.743267 141.718727 
L 169.2689 148.748759 
L 170.794532 144.902432 
L 172.320164 142.874696 
L 173.845796 148.307866 
L 175.371429 139.316761 
L 176.897061 141.099209 
L 178.422693 144.212433 
L 179.948325 139.076327 
L 181.473958 138.462361 
L 182.99959 141.995636 
L 184.525222 142.768694 
L 186.050854 139.909769 
L 187.576487 142.555112 
L 189.102119 145.843723 
L 190.627751 143.446182 
L 192.153383 143.301211 
L 193.679016 143.438265 
L 195.204648 138.433222 
L 196.73028 145.143878 
L 198.255913 145.089702 
L 199.781545 141.279437 
L 201.307177 146.339224 
L 202.832809 140.37416 
L 204.358442 149.174382 
L 205.884074 138.976192 
L 207.409706 145.469976 
L 208.935338 146.435884 
L 210.460971 142.385125 
L 211.986603 145.710776 
L 213.512235 146.986078 
L 215.037867 144.697416 
L 216.5635 145.881665 
L 219.614764 141.533859 
L 221.140396 151.330161 
L 222.666029 138.420226 
L 224.191661 141.523666 
L 225.717293 144.343186 
L 227.242925 141.876013 
L 228.768558 151.50129 
L 230.29419 147.37544 
L 231.819822 144.272772 
L 233.345455 144.033802 
L 234.871087 146.785939 
L 236.396719 148.168221 
L 237.922351 145.2468 
L 239.447984 145.422356 
L 240.973616 147.329037 
L 242.499248 151.163701 
L 244.02488 144.842673 
L 245.550513 145.298418 
L 247.076145 143.261688 
L 248.601777 144.665274 
L 250.127409 144.594226 
L 251.653042 143.873349 
L 253.178674 147.167032 
L 254.704306 143.276133 
L 256.229938 147.433654 
L 257.755571 145.001465 
L 259.281203 147.138652 
L 260.806835 150.176625 
L 262.332468 143.175245 
L 263.8581 145.994377 
L 265.383732 152.700519 
L 266.909364 146.278775 
L 268.434997 154.92565 
L 269.960629 147.748017 
L 271.486261 145.228953 
L 273.011893 149.335836 
L 274.537526 145.563869 
L 276.063158 149.432974 
L 277.58879 146.362515 
L 279.114422 145.359006 
L 280.640055 151.863696 
L 282.165687 145.698286 
L 283.691319 150.239623 
L 285.216951 148.5498 
L 286.742584 147.934969 
L 288.268216 152.470228 
L 289.793848 147.652554 
L 291.319481 148.144331 
L 292.845113 149.454443 
L 294.370745 152.485379 
L 295.896377 143.410378 
L 297.42201 150.791495 
L 298.947642 147.003898 
L 300.473274 150.719563 
L 301.998906 147.238769 
L 303.524539 146.146261 
L 305.050171 149.602413 
L 306.575803 154.262604 
L 308.101435 147.478793 
L 309.627068 149.864419 
L 311.1527 153.949329 
L 312.678332 149.888604 
L 314.203964 150.768808 
L 315.729597 147.389929 
L 317.255229 150.517248 
L 318.780861 148.752691 
L 320.306494 144.844047 
L 321.832126 150.677877 
L 323.357758 150.452087 
L 324.88339 144.74582 
L 326.409023 147.135255 
L 327.934655 145.123872 
L 329.460287 144.085787 
L 330.985919 150.179002 
L 332.511552 153.158296 
L 334.037184 145.984668 
L 335.562816 153.13563 
L 337.088448 143.146962 
L 338.614081 148.401361 
L 340.139713 147.924044 
L 341.665345 145.711965 
L 343.190977 143.715323 
L 344.71661 145.222763 
L 346.242242 145.034877 
L 347.767874 144.406696 
L 349.293506 145.52074 
L 350.819139 149.316484 
L 352.344771 146.853609 
L 353.870403 147.091453 
L 355.396036 143.67108 
L 356.921668 144.544702 
L 358.4473 142.783618 
L 359.972932 144.282409 
L 361.498565 141.208511 
L 363.024197 142.436399 
L 364.549829 140.66764 
L 366.075461 135.594562 
L 367.601094 139.503882 
L 369.126726 140.575982 
L 370.652358 140.82561 
L 372.17799 128.5383 
L 373.703623 127.821247 
L 375.229255 126.644103 
L 376.754887 125.856971 
L 378.280519 123.871447 
L 379.806152 118.681195 
L 381.331784 115.235224 
L 382.857416 114.375873 
L 384.383049 110.910475 
L 385.908681 111.051255 
L 387.434313 109.041234 
L 390.485578 95.368367 
L 392.01121 100.360145 
L 398.113739 81.456313 
L 399.639371 78.814659 
L 401.165003 74.066063 
L 402.690636 70.760638 
L 404.216268 64.136882 
L 405.7419 68.95478 
L 407.267532 66.907087 
L 408.793165 59.761483 
L 410.318797 66.235133 
L 411.844429 59.35122 
L 413.370062 70.145177 
L 414.895694 63.485427 
L 416.421326 67.83161 
L 417.946958 65.863864 
L 420.998223 75.202496 
L 422.523855 71.378891 
L 424.049487 76.874708 
L 425.57512 83.457241 
L 427.100752 87.177329 
L 428.626384 87.532044 
L 430.152016 90.421702 
L 431.677649 96.074614 
L 433.203281 97.630716 
L 436.254545 103.786155 
L 437.780178 105.632645 
L 439.30581 104.969822 
L 440.831442 113.402539 
L 442.357075 120.235216 
L 443.882707 116.876154 
L 445.408339 122.540751 
L 446.933971 129.750067 
L 448.459604 132.000703 
L 449.985236 125.64019 
L 451.510868 130.647208 
L 453.0365 130.40804 
L 454.562133 126.469734 
L 456.087765 130.909315 
L 457.613397 129.267312 
L 459.139029 136.477883 
L 460.664662 137.502246 
L 462.190294 137.344421 
L 463.715926 136.451252 
L 465.241558 130.650237 
L 466.767191 135.252062 
L 468.292823 134.464473 
L 469.818455 136.392808 
L 471.344087 141.806265 
L 472.86972 140.100965 
L 474.395352 135.510561 
L 475.920984 137.181912 
L 477.446617 137.506602 
L 478.972249 134.078811 
L 480.497881 132.451741 
L 482.023513 137.393836 
L 483.549146 133.980196 
L 485.074778 131.766847 
L 486.60041 133.261842 
L 488.126042 132.452873 
L 489.651675 135.267251 
L 492.702939 133.502 
L 494.228571 134.590488 
L 495.754204 132.522309 
L 497.279836 136.404116 
L 498.805468 130.720054 
L 500.3311 134.570325 
L 501.856733 140.674012 
L 503.382365 136.693575 
L 504.907997 138.147229 
L 506.43363 138.893307 
L 507.959262 126.43009 
L 509.484894 130.934373 
L 511.010526 134.283701 
L 512.536159 133.897185 
L 514.061791 135.215488 
L 515.587423 132.268413 
L 517.113055 130.435452 
L 518.638688 138.042614 
L 520.16432 140.614355 
L 521.689952 139.311549 
L 523.215584 135.693511 
L 524.741217 136.219369 
L 526.266849 136.992417 
L 527.792481 134.320762 
L 529.318113 138.902905 
L 530.843746 132.969456 
L 532.369378 135.70634 
L 533.89501 133.746701 
L 535.420643 133.807877 
L 536.946275 135.796196 
L 538.471907 133.099359 
L 539.997539 134.953888 
L 541.523172 134.368117 
L 543.048804 134.991454 
L 544.574436 128.328594 
L 546.100068 134.497695 
L 547.625701 135.822189 
L 549.151333 131.148151 
L 550.676965 135.70913 
L 552.202597 134.737235 
L 553.72823 134.979885 
L 555.253862 137.61241 
L 556.779494 134.498895 
L 558.305126 139.209031 
L 559.830759 133.674784 
L 561.356391 132.029555 
L 562.882023 134.231837 
L 564.407656 133.628216 
L 565.933288 136.687572 
L 567.45892 141.626735 
L 568.984552 138.835733 
L 570.510185 138.372648 
L 572.035817 131.939494 
L 573.561449 143.43685 
L 575.087081 139.967903 
L 576.612714 137.144202 
L 578.138346 141.093978 
L 579.663978 135.606568 
L 581.18961 136.849258 
L 582.715243 137.862471 
L 584.240875 138.399078 
L 585.766507 140.356517 
L 587.292139 143.121352 
L 588.817772 138.719862 
L 590.343404 139.706025 
L 591.869036 137.908386 
L 593.394668 139.717829 
L 594.920301 135.02607 
L 596.445933 146.169247 
L 597.971565 135.872125 
L 599.497198 143.871403 
L 601.02283 142.806737 
L 602.548462 139.852009 
L 604.074094 142.532684 
L 605.599727 141.960859 
L 607.125359 146.116759 
L 608.650991 141.08353 
L 610.176623 140.958921 
L 611.702256 144.45433 
L 613.227888 141.404203 
L 614.75352 141.207093 
L 616.279152 144.340157 
L 617.804785 144.065906 
L 619.330417 146.426305 
L 620.856049 138.613342 
L 622.381681 140.950489 
L 623.907314 146.029129 
L 625.432946 144.789517 
L 626.958578 147.212076 
L 628.484211 142.325637 
L 630.009843 146.338095 
L 631.535475 147.695345 
L 633.061107 140.036456 
L 634.58674 143.482505 
L 636.112372 145.344477 
L 637.638004 146.006407 
L 639.163636 139.121735 
L 639.163636 139.121735 
" clip-path="url(#p22afc20020)" style="fill: none; stroke: #3b82f6; stroke-opacity: 0.85; stroke-width: 2.5; stroke-linecap: round"/>
   </g>
   <g id="line2d_3">
    <path d="M 30.436364 157.520734 
L 31.961996 158.765312 
L 33.487628 154.872345 
L 35.01326 155.303619 
L 36.538893 153.008808 
L 38.064525 156.4516 
L 39.590157 153.444353 
L 41.115789 153.742723 
L 42.641422 155.067665 
L 44.167054 157.10411 
L 45.692686 154.238254 
L 47.218319 156.154384 
L 48.743951 152.36016 
L 50.269583 156.447874 
L 51.795215 152.048274 
L 53.320848 154.069675 
L 54.84648 154.239183 
L 56.372112 151.913606 
L 57.897744 153.224187 
L 59.423377 156.47527 
L 60.949009 153.494132 
L 62.474641 148.88271 
L 64.000273 152.953368 
L 65.525906 148.649257 
L 67.051538 148.308436 
L 68.57717 151.398926 
L 70.102802 152.604571 
L 73.154067 147.134097 
L 74.679699 148.723183 
L 76.205332 147.825515 
L 77.730964 153.1884 
L 79.256596 147.227362 
L 80.782228 146.555134 
L 82.307861 147.909049 
L 83.833493 148.301042 
L 85.359125 147.558027 
L 86.884757 150.357634 
L 88.41039 147.283462 
L 89.936022 147.468522 
L 91.461654 147.449849 
L 92.987286 144.302666 
L 94.512919 142.412086 
L 96.038551 145.645936 
L 97.564183 145.591459 
L 99.089815 143.099322 
L 100.615448 144.897688 
L 102.14108 147.105916 
L 103.666712 142.796233 
L 105.192344 144.441301 
L 106.717977 142.769529 
L 108.243609 143.894033 
L 109.769241 144.87174 
L 111.294874 146.597545 
L 112.820506 144.931137 
L 114.346138 144.553595 
L 115.87177 141.921046 
L 117.397403 143.322276 
L 118.923035 142.616469 
L 120.448667 145.226709 
L 121.974299 142.076904 
L 123.499932 144.596317 
L 125.025564 145.023673 
L 126.551196 141.267802 
L 129.602461 142.325788 
L 131.128093 141.874186 
L 132.653725 142.050077 
L 134.179357 143.303383 
L 135.70499 137.732222 
L 137.230622 141.782356 
L 138.756254 142.397271 
L 140.281887 142.154511 
L 141.807519 146.105097 
L 143.333151 142.435801 
L 144.858783 140.678283 
L 146.384416 141.3317 
L 147.910048 142.792847 
L 149.43568 141.433839 
L 150.961312 137.486579 
L 152.486945 143.73699 
L 154.012577 140.419595 
L 155.538209 143.232134 
L 157.063841 140.76813 
L 158.589474 142.67954 
L 160.115106 145.828434 
L 161.640738 143.771998 
L 163.16637 145.188433 
L 164.692003 141.734386 
L 166.217635 141.773835 
L 167.743267 143.450861 
L 169.2689 141.092431 
L 170.794532 141.971183 
L 172.320164 144.021786 
L 173.845796 144.462263 
L 175.371429 142.661562 
L 176.897061 143.559433 
L 178.422693 143.997485 
L 179.948325 142.437941 
L 181.473958 139.499516 
L 182.99959 143.622676 
L 184.525222 144.124542 
L 186.050854 141.812486 
L 187.576487 141.133579 
L 189.102119 144.306359 
L 190.627751 144.788357 
L 192.153383 142.526577 
L 193.679016 143.362515 
L 195.204648 139.263894 
L 196.73028 140.759503 
L 198.255913 139.564635 
L 199.781545 143.559013 
L 201.307177 141.881504 
L 202.832809 143.841474 
L 204.358442 140.473247 
L 205.884074 144.952983 
L 207.409706 141.488245 
L 208.935338 147.311899 
L 210.460971 143.881394 
L 211.986603 143.022475 
L 213.512235 143.112061 
L 215.037867 142.615612 
L 216.5635 145.576066 
L 218.089132 140.67432 
L 219.614764 144.516768 
L 221.140396 144.639434 
L 222.666029 145.507518 
L 224.191661 146.646667 
L 225.717293 143.894716 
L 227.242925 144.160858 
L 228.768558 140.959322 
L 230.29419 144.615767 
L 231.819822 142.500862 
L 233.345455 146.247637 
L 236.396719 144.116135 
L 237.922351 147.178871 
L 239.447984 145.618036 
L 240.973616 144.744453 
L 242.499248 146.871525 
L 244.02488 143.307026 
L 245.550513 144.858269 
L 247.076145 146.113871 
L 248.601777 143.602451 
L 250.127409 148.651532 
L 251.653042 145.628598 
L 253.178674 144.647047 
L 254.704306 146.964374 
L 256.229938 145.368549 
L 257.755571 148.903892 
L 259.281203 145.732472 
L 260.806835 144.506153 
L 262.332468 145.729188 
L 263.8581 149.263254 
L 265.383732 149.326252 
L 266.909364 148.506848 
L 268.434997 144.05278 
L 269.960629 147.651812 
L 271.486261 146.618715 
L 273.011893 146.321535 
L 274.537526 149.184102 
L 276.063158 149.179783 
L 277.58879 145.481219 
L 279.114422 144.320344 
L 280.640055 148.352758 
L 282.165687 147.777082 
L 283.691319 146.105467 
L 285.216951 147.24655 
L 286.742584 143.45988 
L 288.268216 145.846058 
L 289.793848 146.654294 
L 291.319481 148.83592 
L 292.845113 148.242109 
L 294.370745 150.968435 
L 295.896377 144.007655 
L 297.42201 147.586656 
L 298.947642 148.012477 
L 300.473274 147.464064 
L 301.998906 145.551586 
L 303.524539 145.388021 
L 305.050171 148.790141 
L 306.575803 150.530618 
L 308.101435 148.707535 
L 309.627068 149.701906 
L 311.1527 149.059012 
L 314.203964 148.944859 
L 315.729597 149.492411 
L 317.255229 146.689415 
L 318.780861 146.515719 
L 320.306494 146.915271 
L 321.832126 147.582582 
L 323.357758 147.150578 
L 324.88339 145.834498 
L 326.409023 148.491022 
L 327.934655 149.967504 
L 329.460287 148.173744 
L 330.985919 146.67218 
L 332.511552 148.868514 
L 334.037184 145.171133 
L 335.562816 150.687805 
L 337.088448 147.646445 
L 338.614081 149.215619 
L 340.139713 146.755258 
L 341.665345 146.082657 
L 343.190977 148.053646 
L 344.71661 147.107799 
L 346.242242 148.291501 
L 347.767874 147.442266 
L 349.293506 148.596141 
L 350.819139 147.154303 
L 352.344771 148.148312 
L 353.870403 148.023412 
L 355.396036 146.82379 
L 356.921668 144.667241 
L 358.4473 146.50153 
L 359.972932 147.50606 
L 361.498565 146.70612 
L 363.024197 147.23174 
L 364.549829 144.469857 
L 366.075461 146.561611 
L 367.601094 142.587744 
L 369.126726 146.89972 
L 370.652358 142.547664 
L 372.17799 146.084906 
L 373.703623 144.254742 
L 375.229255 145.35419 
L 376.754887 143.662917 
L 378.280519 140.705733 
L 379.806152 144.550052 
L 381.331784 140.023862 
L 382.857416 138.844061 
L 384.383049 140.66988 
L 385.908681 137.953616 
L 387.434313 141.285031 
L 388.959945 132.865939 
L 390.485578 134.510948 
L 392.01121 133.18673 
L 393.536842 132.302895 
L 395.062474 128.585589 
L 396.588107 122.911212 
L 398.113739 122.105278 
L 399.639371 116.339827 
L 401.165003 112.97156 
L 402.690636 112.427701 
L 404.216268 107.687131 
L 405.7419 104.26993 
L 407.267532 100.578735 
L 408.793165 95.530353 
L 411.844429 80.850623 
L 413.370062 78.613201 
L 414.895694 72.154949 
L 416.421326 61.767086 
L 420.998223 48.275492 
L 422.523855 44.653687 
L 424.049487 38.1629 
L 425.57512 30.378261 
L 427.100752 29.100599 
L 428.626384 22.462668 
L 430.152016 22.866769 
L 431.677649 19.117521 
L 433.203281 16.069463 
L 434.728913 10.08 
L 436.254545 12.539129 
L 437.780178 15.73899 
L 439.30581 14.898864 
L 440.831442 15.391845 
L 442.357075 19.012038 
L 443.882707 20.258061 
L 445.408339 27.618937 
L 446.933971 27.278187 
L 448.459604 32.061715 
L 449.985236 39.650146 
L 453.0365 50.69739 
L 454.562133 56.910945 
L 456.087765 61.031879 
L 459.139029 71.836122 
L 460.664662 76.511124 
L 462.190294 80.751792 
L 463.715926 89.491616 
L 465.241558 89.271023 
L 466.767191 100.341645 
L 468.292823 100.54863 
L 469.818455 103.070498 
L 471.344087 107.154433 
L 472.86972 112.545466 
L 474.395352 117.260594 
L 475.920984 117.337684 
L 477.446617 120.31171 
L 478.972249 125.443899 
L 480.497881 123.366996 
L 482.023513 125.332055 
L 483.549146 128.099714 
L 485.074778 126.330812 
L 486.60041 126.201807 
L 488.126042 131.061219 
L 489.651675 130.614599 
L 492.702939 133.942339 
L 494.228571 130.303529 
L 495.754204 130.471069 
L 497.279836 132.309319 
L 498.805468 131.552423 
L 500.3311 134.682347 
L 501.856733 128.387933 
L 503.382365 130.574194 
L 504.907997 132.558384 
L 506.43363 134.772935 
L 507.959262 134.768008 
L 509.484894 131.306465 
L 511.010526 133.116358 
L 512.536159 132.445985 
L 514.061791 133.889238 
L 515.587423 133.841034 
L 517.113055 132.843174 
L 518.638688 130.545528 
L 520.16432 131.598668 
L 521.689952 131.75061 
L 523.215584 136.075693 
L 524.741217 133.541591 
L 526.266849 135.858961 
L 527.792481 134.974628 
L 529.318113 133.21754 
L 530.843746 133.27508 
L 532.369378 133.994658 
L 533.89501 137.34272 
L 535.420643 130.837398 
L 536.946275 134.350795 
L 538.471907 133.688136 
L 539.997539 132.701687 
L 541.523172 135.084375 
L 543.048804 134.945874 
L 544.574436 136.238106 
L 546.100068 131.768535 
L 547.625701 134.857299 
L 549.151333 132.612087 
L 550.676965 133.917376 
L 552.202597 132.557796 
L 553.72823 134.58804 
L 555.253862 134.048959 
L 556.779494 134.276397 
L 558.305126 133.546462 
L 559.830759 137.463351 
L 561.356391 132.922213 
L 562.882023 136.942661 
L 564.407656 134.070593 
L 565.933288 134.733268 
L 567.45892 137.786996 
L 568.984552 136.567507 
L 570.510185 136.371608 
L 572.035817 133.131573 
L 573.561449 137.576337 
L 575.087081 135.820081 
L 576.612714 133.115305 
L 578.138346 137.514148 
L 579.663978 136.260634 
L 581.18961 136.507422 
L 582.715243 139.940489 
L 584.240875 139.514792 
L 585.766507 137.042227 
L 587.292139 136.168614 
L 588.817772 138.274333 
L 590.343404 141.235469 
L 591.869036 143.297442 
L 593.394668 138.988379 
L 594.920301 138.257115 
L 596.445933 138.013911 
L 597.971565 141.143394 
L 599.497198 139.899494 
L 601.02283 139.873394 
L 602.548462 143.203984 
L 604.074094 139.862585 
L 605.599727 141.281428 
L 607.125359 138.995454 
L 608.650991 140.832477 
L 610.176623 143.092068 
L 611.702256 141.691791 
L 613.227888 143.534987 
L 614.75352 139.335746 
L 616.279152 144.404667 
L 617.804785 142.230452 
L 619.330417 141.15662 
L 620.856049 140.35433 
L 622.381681 143.482532 
L 623.907314 144.359258 
L 625.432946 143.170886 
L 626.958578 145.205839 
L 628.484211 145.901198 
L 630.009843 145.575965 
L 631.535475 146.527494 
L 633.061107 146.163878 
L 634.58674 143.317601 
L 636.112372 143.117505 
L 637.638004 144.902057 
L 639.163636 147.150584 
L 639.163636 147.150584 
" clip-path="url(#p22afc20020)" style="fill: none; stroke-dasharray: 7.4,3.2; stroke-dashoffset: 0; stroke: #0f172a; stroke-opacity: 0.9; stroke-width: 2"/>
   </g>
   <g id="text_1">
    <text style="font-weight: 700; font-size: 9px; font-family: 'Arial', 'DejaVu Sans', 'Liberation Sans', 'Bitstream Vera Sans', sans-serif; fill: #9f1239; opacity: 0.8" transform="translate(357.27718 11.047333)">Phase 7 Recorded Failure:</text>
    <text style="font-weight: 700; font-size: 9px; font-family: 'Arial', 'DejaVu Sans', 'Liberation Sans', 'Bitstream Vera Sans', sans-serif; fill: #9f1239; opacity: 0.8" transform="translate(301.967259 21.125364)">Peak Timing Drift &amp; Amplitude Underestimation</text>
   </g>
  </g>
 </g>
 <defs>
  <clipPath id="p22afc20020">
   <rect x="0" y="-0" width="669.6" height="221.76"/>
  </clipPath>
 </defs>
</svg>
