<?xml version="1.0" encoding="utf-8" standalone="no"?>
<!DOCTYPE svg PUBLIC "-//W3C//DTD SVG 1.1//EN"
  "http://www.w3.org/Graphics/SVG/1.1/DTD/svg11.dtd">
<svg xmlns:xlink="http://www.w3.org/1999/xlink" width="558pt" height="443.52pt" viewBox="0 0 558 443.52" xmlns="http://www.w3.org/2000/svg" version="1.1">
 <metadata>
  <rdf:RDF xmlns:dc="http://purl.org/dc/elements/1.1/" xmlns:cc="http://creativecommons.org/ns#" xmlns:rdf="http://www.w3.org/1999/02/22-rdf-syntax-ns#">
   <cc:Work>
    <dc:type rdf:resource="http://purl.org/dc/dcmitype/StillImage"/>
    <dc:date>2026-03-29T18:14:30.672926</dc:date>
    <dc:format>image/svg+xml</dc:format>
    <dc:creator>
     <cc:Agent>
      <dc:title>Matplotlib v3.10.8, https://matplotlib.org/</dc:title>
     </cc:Agent>
    </dc:creator>
   </cc:Work>
  </rdf:RDF>
 </metadata>
 <defs>
  <style type="text/css">*{stroke-linejoin: round; stroke-linecap: butt}</style>
 </defs>
 <g id="figure_1">
  <g id="patch_1">
   <path d="M 0 443.52 
L 558 443.52 
L 558 0 
L 0 0 
L 0 443.52 
z
" style="fill: none"/>
  </g>
  <g id="axes_1">
   <g id="LineCollection_1">
    <path d="M 509.578512 38.487273 
L 278.060979 222.50637 
" clip-path="url(#pf9011e90b5)" style="fill: none; stroke: #3b82f6; stroke-opacity: 0.15"/>
    <path d="M 278.060979 222.50637 
L 48.421488 405.032727 
" clip-path="url(#pf9011e90b5)" style="fill: none; stroke: #3b82f6; stroke-opacity: 0.15"/>
   </g>
   <g id="PathCollection_1">
    <defs>
     <path id="C0_0_653af23568" d="M 0 2.236068 
C 0.593012 2.236068 1.161816 2.000462 1.581139 1.581139 
C 2.000462 1.161816 2.236068 0.593012 2.236068 -0 
C 2.236068 -0.593012 2.000462 -1.161816 1.581139 -1.581139 
C 1.161816 -2.000462 0.593012 -2.236068 0 -2.236068 
C -0.593012 -2.236068 -1.161816 -2.000462 -1.581139 -1.581139 
C -2.000462 -1.161816 -2.236068 -0.593012 -2.236068 0 
C -2.236068 0.593012 -2.000462 1.161816 -1.581139 1.581139 
C -1.161816 2.000462 -0.593012 2.236068 0 2.236068 
z
"/>
    </defs>
    <g clip-path="url(#pf9011e90b5)">
     <use xlink:href="#C0_0_653af23568" x="509.578512" y="38.487273" style="fill: #10b981; fill-opacity: 0.6"/>
    </g>
    <g clip-path="url(#pf9011e90b5)">
     <use xlink:href="#C0_0_653af23568" x="278.060979" y="222.50637" style="fill: #10b981; fill-opacity: 0.6"/>
    </g>
    <g clip-path="url(#pf9011e90b5)">
     <use xlink:href="#C0_0_653af23568" x="48.421488" y="405.032727" style="fill: #10b981; fill-opacity: 0.6"/>
    </g>
   </g>
  </g>
 </g>
 <defs>
  <clipPath id="pf9011e90b5">
   <rect x="0" y="-0" width="558" height="443.52"/>
  </clipPath>
 </defs>
</svg>
